Coordinates
version=1
nRows=8
nColumns=42
inDegrees=yes

Units are S.I. units (second, meters, Newtons, ...)
Angles are in degrees.

endheader
time	pelvis_tilt	pelvis_list	pelvis_rotation	pelvis_tx	pelvis_ty	pelvis_tz	hip_flexion_r	hip_adduction_r	hip_rotation_r	knee_angle_r	knee_vv_r	knee_rot_r	ankle_angle_r	subtalar_angle_r	mtp_angle_r	hip_flexion_l	hip_adduction_l	hip_rotation_l	knee_angle_l	knee_vv_l	knee_rot_l	ankle_angle_l	subtalar_angle_l	mtp_angle_l	lumbar_extension	lumbar_bending	lumbar_rotation	arm_flex_r	arm_add_r	arm_rot_r	elbow_flex_r	pro_sup_r	wrist_flex_r	wrist_dev_r	arm_flex_l	arm_add_l	arm_rot_l	elbow_flex_l	pro_sup_l	wrist_flex_l	wrist_dev_l
      0.10000000	      9.47848695	      2.76252953	     -3.38420223	      0.03439433	      0.90309033	     -0.01666317	    -15.71651888	     -3.42612378	      1.97054998	    -28.20473240	      0.00000000	      0.00000000	      7.89144641	      0.00000000	      0.00000000	      9.43271279	      4.46149682	     -6.50817814	    -13.17303454	      0.00000000	      0.00000000	     -6.70171475	      0.00000000	      0.00000000	    -23.38703291	     -5.84382205	      5.41003974	     19.89732549	    -16.07572100	     25.08056901	     21.17696586	     86.51662706	      0.00000000	      0.00000000	      1.66760489	    -10.95752979	     44.29208834	      0.62550095	     85.94366927	      0.00000000	      0.00000000
      0.11000000	      9.44579112	      3.30281768	     -3.74253987	      0.03536272	      0.90418804	     -0.01862838	    -14.05005564	     -4.46478336	      1.52027487	    -31.75158312	      0.00000000	      0.00000000	      4.99649020	      0.00000000	      0.00000000	      8.83621735	      5.23831618	     -6.42517944	    -13.16359222	      0.00000000	      0.00000000	     -6.22131196	      0.00000000	      0.00000000	    -23.12132319	     -6.38136688	      5.37938840	     19.08279932	    -15.80902152	     25.66544067	     20.33364636	     86.51662706	      0.00000000	      0.00000000	      2.37553117	    -11.12519242	     44.28738564	      1.00207455	     85.94366927	      0.00000000	      0.00000000
      0.12000000	      9.30966441	      3.78090072	     -4.08699632	      0.03599262	      0.90506835	     -0.02052620	    -12.15602880	     -5.38836586	      1.30478648	    -35.28482198	      0.00000000	      0.00000000	      1.63351193	      0.00000000	      0.00000000	      8.31606287	      5.95623832	     -6.25955139	    -13.03130795	      0.00000000	      0.00000000	     -5.72368563	      0.00000000	      0.00000000	    -22.77198764	     -6.84480455	      5.33370639	     18.34831415	    -15.52516541	     26.46324956	     19.34776424	     86.51662706	      0.00000000	      0.00000000	      3.10372338	    -11.32071458	     44.04706771	      1.45459879	     85.94366927	      0.00000000	      0.00000000
      0.13000000	      9.11573529	      4.20338698	     -4.41508716	      0.03633630	      0.90577135	     -0.02233369	    -10.12252250	     -6.19414533	      1.30878647	    -38.74695978	      0.00000000	      0.00000000	     -1.92702425	      0.00000000	      0.00000000	      7.82623293	      6.61867618	     -6.04146518	    -12.79158725	      0.00000000	      0.00000000	     -5.21809375	      0.00000000	      0.00000000	    -22.38582509	     -7.24073190	      5.26309555	     17.67667388	    -15.22346347	     27.40516183	     18.26139169	     86.51662706	      0.00000000	      0.00000000	      3.84918245	    -11.54789943	     43.61778715	      1.98620124	     85.94366927	      0.00000000	      0.00000000
      0.14000000	      8.91600756	      4.57397972	     -4.72351716	      0.03645141	      0.90633914	     -0.02402840	     -8.05335642	     -6.87713566	      1.49952759	    -42.07120580	      0.00000000	      0.00000000	     -5.34256349	      0.00000000	      0.00000000	      7.31862319	      7.22284513	     -5.80945310	    -12.47071677	      0.00000000	      0.00000000	     -4.71440310	      0.00000000	      0.00000000	    -22.01813035	     -7.57310107	      5.15865294	     17.04977388	    -14.90539626	     28.40972511	     17.12450980	     86.51662706	      0.00000000	      0.00000000	      4.60902129	    -11.81114762	     43.05315042	      2.60020492	     85.94366927	      0.00000000	      0.00000000
      0.15000000	      8.75504757	      4.88947366	     -5.00951677	      0.03639154	      0.90682519	     -0.02559738	     -6.04287297	     -7.43213993	      1.82460186	    -45.19920607	      0.00000000	      0.00000000	     -8.27297355	      0.00000000	      0.00000000	      6.75769004	      7.75919563	     -5.60281567	    -12.10302522	      0.00000000	      0.00000000	     -4.22056126	      0.00000000	      0.00000000	    -21.72033183	     -7.83996713	      5.01548816	     16.45401857	    -14.57601395	     29.40230699	     15.98393375	     86.51662706	      0.00000000	      0.00000000	      5.38263043	    -12.11359982	     42.40187780	      3.29886172	     85.94366927	      0.00000000	      0.00000000
      0.16000000	      8.66080553	      5.14045504	     -5.27121908	      0.03618609	      0.90730777	     -0.02704627	     -4.15957870	     -7.85709874	      2.21741703	    -48.09143635	      0.00000000	      0.00000000	    -10.44393213	      0.00000000	      0.00000000	      6.12671353	      8.21564052	     -5.45477596	    -11.72423428	      0.00000000	      0.00000000	     -3.74161628	      0.00000000	      0.00000000	    -21.53226873	     -8.03363460	      4.83255153	     15.88223679	    -14.24422590	     30.32766214	     14.87641391	     86.51662706	      0.00000000	      0.00000000	      6.17199688	    -12.45564773	     41.70222173	      4.08183663	     85.94366927	      0.00000000	      0.00000000
      0.17000000	      8.64221593	      5.31682369	     -5.50567551	      0.03581229	      0.90787148	     -0.02839830	     -2.43751069	     -8.15569010	      2.60913292	    -50.72765156	      0.00000000	      0.00000000	    -11.69245849	      0.00000000	      0.00000000	      5.42582778	      8.58343537	     -5.38645761	    -11.36424399	      0.00000000	      0.00000000	     -3.27982774	      0.00000000	      0.00000000	    -21.47735532	     -8.14395077	      4.61048216	     15.33199202	    -13.92156018	     31.15541504	     13.82576143	     86.51662706	      0.00000000	      0.00000000	      6.97980102	    -12.83399984	     40.98126240	      4.94464621	     85.94366927	      0.00000000	      0.00000000
